<svg width="575" height="575" viewBox="0 0 575 575" fill="none" xmlns="http://www.w3.org/2000/svg">
<rect width="575" height="575" rx="74" fill="#999999"/>
<rect x="243.537" y="80" width="211.328" height="249.151" rx="91" fill="#FF7979"/>
<path d="M132.769 194.069C138.172 330.953 339.595 345.661 354.004 194.069" stroke="black" stroke-width="29"/>
<circle cx="132.769" cy="191.968" r="14.1086" fill="black"/>
<circle cx="176.296" cy="118.423" r="22.2135" fill="black"/>
<circle cx="309.577" cy="118.423" r="22.2135" fill="black"/>
<circle cx="353.704" cy="191.968" r="14.1086" fill="black"/>
<path d="M164.904 396.538C161.747 392.954 157.992 390.138 153.64 388.09C149.288 385.957 144.936 384.89 140.584 384.89C136.403 384.89 132.477 385.701 128.808 387.322C125.224 388.858 122.024 391.077 119.208 393.978C116.477 396.794 114.344 400.08 112.808 403.834C111.272 407.589 110.504 411.642 110.504 415.994C110.504 420.346 111.272 424.442 112.808 428.282C114.344 432.037 116.477 435.322 119.208 438.138C122.024 440.954 125.224 443.173 128.808 444.794C132.477 446.416 136.403 447.226 140.584 447.226C144.936 447.226 149.245 446.288 153.512 444.41C157.779 442.448 161.576 439.802 164.904 436.474L175.016 447.098C172.029 450.17 168.573 452.858 164.648 455.162C160.808 457.466 156.755 459.258 152.488 460.538C148.307 461.733 144.04 462.33 139.688 462.33C133.117 462.33 126.973 461.178 121.256 458.874C115.624 456.485 110.675 453.2 106.408 449.018C102.227 444.837 98.9413 439.93 96.552 434.298C94.1627 428.666 92.968 422.65 92.968 416.25C92.968 409.765 94.1627 403.792 96.552 398.33C98.9413 392.784 102.312 387.92 106.664 383.738C111.016 379.557 116.008 376.314 121.64 374.01C127.357 371.706 133.587 370.554 140.328 370.554C144.68 370.554 148.904 371.152 153 372.346C157.181 373.456 161.149 375.077 164.904 377.21C168.659 379.258 171.987 381.776 174.888 384.762L164.904 396.538ZM228.429 407.418C223.65 407.077 219.512 407.802 216.013 409.594C212.514 411.301 209.826 413.776 207.949 417.018C206.072 420.261 205.133 423.973 205.133 428.154L200.653 427.642C200.653 420.048 201.762 413.648 203.981 408.442C206.2 403.152 209.4 399.141 213.581 396.41C217.762 393.68 222.712 392.314 228.429 392.314V407.418ZM188.493 392.954H205.133V461.178H188.493V392.954ZM240.118 392.954H256.758V461.178H240.118V392.954ZM248.31 363.898C251.041 363.898 253.302 364.794 255.094 366.586C256.886 368.378 257.782 370.64 257.782 373.37C257.782 376.016 256.886 378.277 255.094 380.154C253.302 381.946 251.041 382.842 248.31 382.842C245.665 382.842 243.446 381.946 241.654 380.154C239.862 378.277 238.966 376.016 238.966 373.37C238.966 370.64 239.862 368.378 241.654 366.586C243.446 364.794 245.665 363.898 248.31 363.898ZM317.688 392.314C324.173 392.314 329.848 393.765 334.712 396.666C339.576 399.568 343.331 403.664 345.976 408.954C348.707 414.16 350.072 420.261 350.072 427.258C350.072 434.085 348.749 440.101 346.104 445.306C343.459 450.426 339.704 454.48 334.84 457.466C330.061 460.368 324.429 461.818 317.944 461.818C311.885 461.818 306.68 460.453 302.328 457.722C297.976 454.906 294.648 450.896 292.344 445.69C290.04 440.485 288.888 434.341 288.888 427.258C288.888 419.92 289.997 413.648 292.216 408.442C294.52 403.237 297.848 399.269 302.2 396.538C306.552 393.722 311.715 392.314 317.688 392.314ZM313.976 405.498C310.221 405.498 306.851 406.437 303.864 408.314C300.963 410.106 298.701 412.624 297.08 415.866C295.459 419.024 294.648 422.693 294.648 426.874C294.648 431.056 295.459 434.768 297.08 438.01C298.701 441.253 300.963 443.77 303.864 445.562C306.851 447.354 310.221 448.25 313.976 448.25C317.816 448.25 321.144 447.354 323.96 445.562C326.861 443.685 329.123 441.168 330.744 438.01C332.365 434.768 333.176 431.056 333.176 426.874C333.176 422.693 332.365 419.024 330.744 415.866C329.123 412.624 326.861 410.106 323.96 408.314C321.144 406.437 317.816 405.498 313.976 405.498ZM278.008 392.954H294.648V486.01H278.008V392.954ZM405.069 410.746C401.741 408.784 398.285 407.29 394.701 406.266C391.117 405.157 387.874 404.602 384.973 404.602C382.242 404.602 380.024 405.114 378.317 406.138C376.61 407.077 375.757 408.698 375.757 411.002C375.757 412.965 376.61 414.544 378.317 415.738C380.109 416.933 382.37 417.957 385.101 418.81C387.832 419.578 390.733 420.432 393.805 421.37C396.877 422.309 399.778 423.546 402.509 425.082C405.325 426.618 407.586 428.666 409.293 431.226C411.085 433.786 411.981 437.157 411.981 441.338C411.981 445.946 410.744 449.786 408.269 452.858C405.794 455.845 402.509 458.106 398.413 459.642C394.317 461.093 389.837 461.818 384.973 461.818C379.853 461.818 374.733 461.008 369.613 459.386C364.578 457.765 360.269 455.376 356.685 452.218L362.445 441.082C365.602 443.813 369.314 445.946 373.581 447.482C377.933 448.933 381.944 449.658 385.613 449.658C387.576 449.658 389.325 449.402 390.861 448.89C392.397 448.378 393.592 447.653 394.445 446.714C395.298 445.69 395.725 444.368 395.725 442.746C395.725 440.528 394.872 438.821 393.165 437.626C391.458 436.346 389.24 435.28 386.509 434.426C383.864 433.488 381.005 432.592 377.933 431.738C374.861 430.8 371.96 429.605 369.229 428.154C366.584 426.618 364.408 424.613 362.701 422.138C360.994 419.664 360.141 416.378 360.141 412.282C360.141 407.674 361.336 403.877 363.725 400.89C366.114 397.904 369.272 395.728 373.197 394.362C377.122 392.912 381.389 392.186 385.997 392.186C390.434 392.186 394.872 392.826 399.309 394.106C403.746 395.301 407.672 397.008 411.085 399.226L405.069 410.746ZM454.805 470.138C452.586 475.6 449.514 479.738 445.589 482.554C441.664 485.37 436.97 486.778 431.509 486.778C428.181 486.778 425.152 486.266 422.421 485.242C419.776 484.218 417.13 482.725 414.485 480.762L421.653 468.73C424.725 471.034 427.669 472.186 430.485 472.186C432.704 472.186 434.624 471.589 436.245 470.394C437.952 469.2 439.36 467.365 440.469 464.89L442.517 460.154L414.229 392.954H431.509L450.965 443.642L468.757 392.954H485.525L454.805 470.138Z" fill="black"/>
</svg>
